<svg width="186" height="42" viewBox="0 0 186 42" fill="none" xmlns="http://www.w3.org/2000/svg">
<path d="M177.419 5.71352L163.577 20.8702L170.659 30.5448H160.358L155.851 25.3851L149.413 30.5448L156.495 22.1601L161.324 28.2874H166.474L160.036 20.5477L177.419 5.71352Z" fill="#333333"/>
<path d="M139.434 34.737L151.988 20.8703L144.907 11.1957H155.208L159.714 16.3555L166.152 11.1957L159.07 19.5803L154.242 13.4532H149.091L155.53 21.1926L139.434 34.737Z" fill="#428BCA"/>
<path d="M74.5383 18.4669V23.0122H48.2231V25.7393H74.5383V30.2846H43.6862V18.4669H74.5383Z" fill="#333333"/>
<path d="M75.7559 11.6818V15.687H89.7484V30.7061H95.7453V15.687H108.739V11.6818H75.7559Z" fill="#333333"/>
<path d="M109.922 11.6818V15.687H123.915V30.7061H129.912V15.687H142.905V11.6818H109.922Z" fill="#333333"/>
<path d="M74.3946 11.6489V16.1942H39.0055L28.1164 30.7391H23.5793L8.1532 11.6489H14.5051L25.3942 25.2848L36.2831 11.6489H74.3946Z" fill="#333333"/>
</svg>
